<svg version="1" xmlns="http://www.w3.org/2000/svg" width="933.333" height="933.333" viewBox="0 0 700.000000 700.000000"><path d="M344.5 31.2c-8.1 1-13.9 3.5-31.3 13.6-6.8 4-12.5 7.2-12.7 7.2-.2 0-2.4 1.3-4.8 3-2.5 1.6-4.7 3-5 3-.3 0-7.2 3.9-15.4 8.6-8.1 4.8-16.8 9.8-19.3 11.2-2.5 1.3-8.1 4.6-12.5 7.2-4.4 2.6-11.1 6.5-14.8 8.6-3.8 2.2-8.3 4.7-10 5.8-1.8 1-22.8 13.1-46.7 26.9-94 54.2-86.8 49.6-94.6 60-4 5.3-7.4 12.8-9 19.4-.4 1.5-.7 66-.8 143.3-.2 142.1-.2 144.6 3.3 153.2 2 5.2 9.2 15.6 13.4 19.5 4.5 4.1 13.2 9.3 101.2 59.8 8.8 5 44.1 25.4 78.5 45.2 73.6 42.4 68.5 39.7 78.5 41.9 4.4 1 18.3.4 23.6-1 3.1-.8 7.9-2.7 10.5-4.2 12.3-6.9 31.2-17.8 33.6-19.5 1.4-1.1 2.8-1.9 3.1-1.9.4 0 20.1-11.4 72.2-41.7 9.9-5.8 19.8-11.5 22-12.7 2.2-1.3 5.6-3.2 7.5-4.4 1.9-1.1 7.1-4.2 11.5-6.7s8.7-5 9.5-5.5c3-1.8 16.6-9.8 21-12.2 2.5-1.4 8.6-4.9 13.5-7.8 26.7-15.6 33.4-19.5 37.8-21.9 10-5.4 19.5-18.7 23.1-32.2 1.2-4.5 1.4-28.3 1.4-146.4 0-155.5.4-145.4-6.5-159.5-6.2-12.6-8.9-14.6-56.8-42.3-23.7-13.7-43.7-25.3-44.5-25.7-12.6-7.5-15.2-9-15.5-9-.3 0-32.6-18.8-34.5-20-.8-.6-2.7-1.6-4.2-2.3-1.6-.6-2.8-1.5-2.8-1.9 0-.4-.4-.8-.9-.8-.8 0-79.1-45.1-81.6-47-.5-.4-4.4-2.5-8.6-4.8-10.8-5.7-20.1-7.4-32.4-6zm24 19.4c2.8.9 10.7 5 17.7 9 7 4.1 14.2 8.2 16 9.2 1.8 1.1 19.5 11.4 39.3 22.9 19.8 11.6 37.4 21.8 39 22.7 1.7.9 4.5 2.5 6.3 3.6 3.4 2.1 39 22.8 84.2 49 14.6 8.5 28.4 17.2 30.7 19.3 5.3 4.9 9.9 12 13.2 20.5l2.6 6.7.1 134.4c.1 146.5.4 139.3-5.6 151.6-6.1 12.5-9.8 15.5-42 34-7.4 4.3-18.7 10.8-25 14.5-6.3 3.7-20 11.6-30.5 17.7-10.4 6-23.5 13.6-29 16.8-5.5 3.2-12.2 7.1-15 8.7-2.7 1.6-5.7 3.3-6.5 3.8-2.3 1.4-35 20.4-40 23.2-2.5 1.4-15.1 8.7-28 16.2s-26 14.4-29 15.4c-7.6 2.3-23.8 2.3-30.6-.1-4.2-1.4-18.2-9.2-52.1-28.8-1.8-1.1-5-2.9-7-4-2.1-1.2-14.4-8.2-27.3-15.7-26.9-15.5-36.7-21.1-83-47.7-18.4-10.6-40.2-23.2-48.5-27.9-9.2-5.3-17-10.6-20.1-13.7-6.2-6.1-11.8-15.3-14.4-23.6-1.8-6-1.9-10.7-1.9-138.5l.1-132.3 2.1-6.5c3-9.1 8.2-17.3 14.8-23.4 3.9-3.6 17.4-11.9 45.5-28.1 21.9-12.7 40.8-23.5 41.9-24.1 1.1-.6 5.4-3.1 9.5-5.5 4.1-2.5 8.2-4.8 9-5.2.8-.4 2.2-1.1 3-1.7 1.5-1 5.3-3.2 22-12.8 5.2-3 10.9-6.2 12.5-7.2 1.7-.9 10.4-6 19.5-11.2 9.1-5.2 23.7-13.7 32.5-18.8 8.8-5.1 18.7-10.8 22-12.7 10.5-6 20-10.3 24.6-11.2 6.9-1.3 21.7-.5 27.4 1.5z"/><path d="M335.4 69.2c-3.1 1-11.3 5.2-18.3 9.2-6.9 4-49.3 28.6-94.1 54.6s-82.8 48.1-84.5 49c-24.5 13.9-31.2 20.8-37.1 38-1.8 5.3-1.9 10.5-1.9 130v124.5l2.7 7.2c4.3 12.1 13.6 23.3 23.8 29 1.9 1.1 17.5 10.1 34.5 20 17.1 9.9 35.3 20.5 40.5 23.5 5.2 3 24.8 14.4 43.5 25.3s35.4 20.5 37 21.5c1.7.9 13.1 7.5 25.5 14.7 28.6 16.5 29.4 16.8 44 16.8 9.8-.1 12.4-.4 17.5-2.5 4.4-1.8 72.7-41 92.5-53.1.8-.5 6.5-3.7 12.5-7.2 54.9-31.4 107.3-62.6 110.9-66.1 5.7-5.5 11.1-14.1 13.8-22.3l2.3-6.8v-124c0-117.1-.1-124.4-1.8-130.3-3.1-10.6-9.9-21-17.6-26.6-4-2.9-18.9-11.9-31.6-19.1-2.2-1.3-16.1-9.4-31-18-14.8-8.7-28.8-16.8-31-18-2.2-1.3-22.7-13.2-45.5-26.5s-42.9-25.1-44.7-26.1c-1.8-1-8.1-4.6-14-8.1-14.6-8.6-21.2-10.7-33-10.6-6.3.1-11 .7-14.9 2zM382 202.8c2.5.6 6.2 1.3 8.4 1.6 4.6.8 17.8 5 22.6 7.4 32.1 15.7 45.7 43.9 45.3 94.3-.2 22.2-4 41.4-11.2 55.8-4 8.1-7.8 13.1-16 20.8-6.5 6.2-7.6 8.6-5.2 11.8.5.5 3.8 6.8 7.6 14 3.7 7.1 13.2 25 21.1 39.7 16.3 30.3 17.4 32.7 17.4 37.5 0 6.4-4.7 12.4-11 14-1.9.5-15.5.9-30.2.9-25.3-.1-26.8-.2-29.4-2.2-1.7-1.2-5.5-7.4-9.6-15.5-3.8-7.4-12.6-24.4-19.5-37.9-7-13.5-14-27.2-15.6-30.5-4.8-9.6-4.6-9.5-15.8-9.5-11.6 0-13.8.7-17.5 5.6l-2.8 3.6-.1 38.3-.1 38.3-2.4 3.5c-4.3 6.3-5.8 6.6-35.3 6.7-17.8 0-27.3-.3-29-1.1-1.3-.6-3.4-2.8-4.6-4.9l-2.2-3.9V350.5c0-154.6-.3-146 5.9-148.4 3.6-1.4 123-.7 129.2.7z"/><path d="M331 275c-9.5 1.6-10.6 4.6-10.5 28 .1 10.2.5 19.5.9 20.7.4 1.2 2.2 3.3 3.9 4.5 3 2.2 4.3 2.3 20.7 2.5 23.8.3 30.7-1.1 34.7-7 3.7-5.4 5-11.3 4.8-22.8-.2-9.1-.6-11.4-2.6-15.5-2.9-6-7.2-9-14.2-10-6.4-.9-32.9-1.2-37.7-.4z"/></svg>